<?xml version="1.0" encoding="UTF-8"?>
<svg version="1.1" xmlns="http://www.w3.org/2000/svg" width="500" height="500">
<path d="M0 0 C10.90555595 9.08796329 14.87604108 22.16882043 18.12988281 35.55004883 C18.49443641 37.0034066 18.86023828 38.45645174 19.22717285 39.90921021 C20.21575463 43.83777706 21.18703056 47.7704369 22.15525913 51.70406175 C23.19341593 55.90815071 24.24813464 60.1080839 25.30096436 64.30851746 C27.309229 72.33102967 29.30336038 80.35698299 31.29216456 88.38433903 C33.70168115 98.10736209 36.12780146 107.82622252 38.5546875 117.54492188 C39.42394123 121.02680054 40.29305257 124.50871473 41.16209412 127.99064636 C41.48422321 129.28123059 41.48422321 129.28123059 41.81285995 130.59788722 C43.33706529 136.70557899 44.85857594 142.81393845 46.37904358 148.92256165 C52.03929826 171.65921442 57.74744811 194.38324261 63.51171875 217.09375 C63.69790512 217.82736393 63.88409149 218.56097787 64.07591987 219.31682253 C68.26500076 235.82078111 72.46861225 252.32101674 76.68287849 268.81856251 C78.88152586 277.42564889 81.07566411 286.03387446 83.26553154 294.64319897 C84.60359929 299.90217433 85.94566852 305.16007952 87.29467773 310.41625977 C88.65952387 315.73500069 90.01496624 321.05605827 91.36396599 326.37883949 C91.86491826 328.34867166 92.36915526 330.31767209 92.87704659 332.28572655 C95.40130413 342.07397022 97.82128921 351.548169 98.0625 361.71875 C94.25319344 360.25085273 91.10047989 358.53007648 87.6875 356.28125 C67.65665991 343.57643507 45.11485561 334.96139425 22.0625 329.71875 C21.35416016 329.55213867 20.64582031 329.38552734 19.91601562 329.21386719 C-27.13306989 318.58491101 -76.35972794 332.76471678 -116.9375 356.71875 C-118.27563669 357.6434633 -119.60241615 358.58495591 -120.9140625 359.546875 C-123.9375 361.71875 -123.9375 361.71875 -125.9375 361.71875 C-126.34824537 355.13462369 -124.81542001 349.33772411 -123.17578125 342.98828125 C-122.87815384 341.80763092 -122.58052643 340.62698059 -122.27388 339.41055298 C-121.62019115 336.82191718 -120.96355659 334.23424396 -120.30181885 331.64767456 C-119.22540219 327.43978616 -118.16039522 323.22905985 -117.09716797 319.01782227 C-115.9455417 314.45847711 -114.79315759 309.89933029 -113.63708496 305.34111023 C-110.67592813 293.66357349 -107.7462063 281.97840669 -104.83203125 270.2890625 C-104.61752382 269.42878826 -104.4030164 268.56851402 -104.18200874 267.68217087 C-103.30740158 264.17457187 -102.43285214 260.6669585 -101.55842304 257.15931511 C-95.94385811 234.63974794 -90.31804429 212.12289773 -84.6171875 189.625 C-84.44483959 188.94484203 -84.27249168 188.26468407 -84.09492111 187.56391525 C-82.35716053 180.7080338 -80.61573298 173.85309525 -78.8684597 166.99963188 C-77.94780812 163.38801877 -77.02829226 159.77611725 -76.109375 156.1640625 C-75.91941578 155.41741962 -75.72945656 154.67077675 -75.533741 153.90150833 C-71.99021833 139.96177136 -68.51460381 126.00538934 -65.04534245 112.04701155 C-63.90423678 107.45702927 -62.76038183 102.86773849 -61.61474609 98.27888489 C-61.45204318 97.62717019 -61.28934027 96.97545549 -61.12170696 96.30399185 C-60.29708499 93.00137661 -59.47209848 89.69885266 -58.64686584 86.39638996 C-57.00807193 79.83608802 -55.37478903 73.27449884 -53.75415039 66.70968628 C-52.21830348 60.49001084 -50.6691954 54.27378188 -49.11058807 48.05977249 C-48.53361097 45.74913863 -47.96152654 43.43727667 -47.39472198 41.12412643 C-40.44882426 12.80424391 -40.44882426 12.80424391 -31.4375 3.15625 C-30.7259375 2.37121094 -30.014375 1.58617187 -29.28125 0.77734375 C-20.22070663 -7.18083351 -9.40761621 -6.92505082 0 0 Z M-52.9375 190.71875 C-53.88109375 191.22921875 -54.8246875 191.7396875 -55.796875 192.265625 C-60.7719971 195.41978738 -62.44732189 198.37943404 -63.83300781 204.07177734 C-63.99457996 204.72019781 -64.15615211 205.36861828 -64.32262039 206.03668785 C-64.87336578 208.26117433 -65.40497062 210.48983758 -65.9375 212.71875 C-66.34825034 214.39158056 -66.76020417 216.06411595 -67.17321777 217.73638916 C-68.58845189 223.48877878 -69.97523498 229.24787435 -71.359375 235.0078125 C-71.60945564 236.04694164 -71.85953629 237.08607079 -72.11719513 238.15668869 C-73.43548241 243.63440548 -74.75165115 249.11262583 -76.06591797 254.59130859 C-77.42147156 260.24038702 -78.78407935 265.88773962 -80.14826584 271.53473854 C-81.20036515 275.89523173 -82.24741489 280.25692593 -83.29306793 284.61896896 C-83.79356352 286.70302655 -84.295944 288.78663241 -84.80025482 290.86977005 C-85.50206208 293.77081511 -86.19672664 296.67348195 -86.88964844 299.57666016 C-87.09843124 300.432789 -87.30721405 301.28891785 -87.52232361 302.17098999 C-88.45134148 306.09476682 -89.20731163 309.65311203 -88.9375 313.71875 C-84.78624858 311.67607073 -80.67734197 309.59852332 -76.6328125 307.3515625 C-66.03838332 301.50401045 -55.6014948 296.95859312 -43.9375 293.71875 C-42.18759766 293.22761719 -42.18759766 293.22761719 -40.40234375 292.7265625 C-6.57327819 284.4176692 27.08647006 293.79981738 56.3125 311.34375 C57.03953125 311.81039062 57.7665625 312.27703125 58.515625 312.7578125 C59.90056521 313.8066972 59.90056521 313.8066972 61.0625 313.71875 C60.43080656 306.34188822 58.92781173 299.38437396 57.15625 292.203125 C56.87148804 291.02913147 56.58672607 289.85513794 56.29333496 288.64556885 C55.3882843 284.91866718 54.47566008 281.19367213 53.5625 277.46875 C52.65093602 273.729173 51.74092813 269.98922154 50.83166504 266.24908447 C50.26686367 263.92815752 49.70043945 261.60762474 49.13220215 259.28753662 C48.8752356 258.2358429 48.61826904 257.18414917 48.35351562 256.10058594 C48.12780884 255.17953064 47.90210205 254.25847534 47.66955566 253.30950928 C47.07855442 250.78726617 46.55807353 248.26129943 46.0625 245.71875 C44.69209133 238.9191505 43.22581289 232.14589732 41.68408203 225.38305664 C41.18942091 223.16225789 40.71644575 220.93650899 40.26611328 218.70629883 C37.64729704 203.86936858 37.64729704 203.86936858 28.49087524 192.62504578 C25.42694689 190.73323808 22.34795143 189.20343708 19.0625 187.71875 C18.06661865 187.19152344 17.0707373 186.66429687 16.04467773 186.12109375 C-7.14154219 173.88112779 -31.18659031 178.13660866 -52.9375 190.71875 Z " fill="#2562E8" transform="translate(263.9375,138.28125)"/>
<path d="M0 0 C3.20824247 1.49717982 5.72932114 3.27518536 8 6 C9.20643566 9.61930698 9.32268559 12.19231005 9 16 C6.97285074 19.88536942 4.35625267 22.6885599 1.375 25.875 C-17.87996476 47.24944783 -25.00643571 74.38561721 -23.8125 102.5625 C-21.61718511 127.72830479 -11.06175151 148.87215791 6.28515625 167.01171875 C9.46960265 170.70393565 9.32394878 174.30274266 9 179 C7.09544338 183.54977416 4.36350222 185.77708378 0 188 C-4.77986885 188.77094659 -7.68777405 188.60912993 -11.75 185.9375 C-33.66443338 167.54656375 -46.98461318 136.46741972 -49.81689453 108.47094727 C-50.92273742 93.54796615 -50.6702109 78.54477367 -47 64 C-46.68289062 62.72769531 -46.36578125 61.45539062 -46.0390625 60.14453125 C-41.75118323 44.42362459 -34.46102692 28.52268916 -24 16 C-23.07751392 14.85465857 -22.1556811 13.70879081 -21.234375 12.5625 C-20.26258384 11.37322584 -19.28864433 10.18570373 -18.3125 9 C-17.86076416 8.44699219 -17.40902832 7.89398438 -16.94360352 7.32421875 C-11.9608606 1.42795773 -7.65918368 -1.16519022 0 0 Z " fill="#39B6FB" transform="translate(172,0)"/>
<path d="M0 0 C16.42714914 7.71070266 28.82932608 33.51215361 34.859375 49.80859375 C46.55696141 83.78215024 44.19326962 119.06631706 28.93359375 151.47265625 C24.09833854 161.28876072 18.04432076 169.66422043 11 178 C10.56413574 178.54172852 10.12827148 179.08345703 9.67919922 179.64160156 C5.55289751 184.74857988 2.13856247 187.5595 -4.5625 188.5 C-9.68564687 187.754815 -12.64025973 185.677013 -15.875 181.6875 C-17.40338184 178.0363656 -17.59197651 175.94651006 -17 172 C-14.51687281 167.03374563 -11.05014134 163.00096181 -7.25 159 C9.28198888 140.75780538 16.88748816 115.07148127 16.15625 90.7578125 C16.1046875 89.84773438 16.053125 88.93765625 16 88 C15.9690625 87.27554688 15.938125 86.55109375 15.90625 85.8046875 C14.10491588 62.11714381 3.73521625 39.11528848 -12.96875 22.33203125 C-15.60059806 19.31046722 -16.82721928 16.74296345 -17.22265625 12.75390625 C-16.90170337 8.36233155 -16.20529645 5.57586451 -13 2.4375 C-8.8295794 -0.63679362 -5.01306141 -1.04131607 0 0 Z " fill="#3AB5FB" transform="translate(336,0)"/>
<path d="M0 0 C3.49603971 2.61480656 5.33066996 5.02430272 6.140625 9.3515625 C6.34969362 15.60271426 2.9763883 19.40202405 -0.79296875 24.0546875 C-11.28605394 37.04835201 -17.0660091 52.61240442 -16.4921875 69.40625 C-14.71048239 86.02337725 -8.29843454 100.30386824 3.265625 112.4765625 C5.65104726 116.1464429 6.2205607 119.62601499 5.890625 123.9765625 C3.96359905 127.83061439 1.81224189 131.06874888 -2.109375 132.9765625 C-6.72575677 133.69152794 -9.91222946 133.6384763 -14.0625 131.34375 C-17.37508618 128.77012535 -19.94474411 125.96784647 -22.484375 122.6640625 C-23.19219116 121.74862671 -23.19219116 121.74862671 -23.91430664 120.81469727 C-38.74007896 101.1014181 -44.85274699 77.20212054 -41.609375 52.72265625 C-38.5157892 33.05963741 -28.90524205 13.52957672 -14.109375 -0.0234375 C-9.36006543 -1.60654069 -4.63529769 -2.24897777 0 0 Z " fill="#2663E7" transform="translate(202.109375,28.0234375)"/>
<path d="M0 0 C11.70854581 5.12248879 20.22283206 21.67600312 24.84521484 33.08642578 C33.58161308 56.91653709 33.11300978 81.91590765 22.87548828 105.140625 C18.46039411 114.51746751 10.99085111 127.51454062 1.97265625 133.30078125 C-1.73668273 134.61557665 -5.13992422 134.72011498 -9 134 C-12.80749447 132.14216874 -15.35642368 129.86106347 -16.7578125 125.80859375 C-17.56912149 120.70770425 -16.95213511 117.33594844 -14 113 C-12.90690576 111.76097631 -11.80152434 110.53273952 -10.6875 109.3125 C-0.01458344 97.46871495 5.60879481 80.44343569 5.18359375 64.5859375 C4.01347188 48.1046465 -1.93260918 33.34285458 -13.4375 21.3125 C-16.24767916 18.15586039 -17.03088004 15.34261781 -17.23828125 11.14453125 C-16.75229988 6.77069895 -14.1304179 4.25601989 -11.3125 1.125 C-7.57805644 -0.69175632 -4.0640695 -0.59891551 0 0 Z " fill="#2663E8" transform="translate(309,27)"/>
<path d="M0 0 C8.91753356 5.34402284 14.02595276 15.313395 17.2421875 24.89453125 C20.82936828 39.59457619 18.87804969 53.96658219 11.66796875 67.30078125 C7.62117096 73.84958048 3.6175342 78.95958905 -4 81 C-10.08868732 81 -12.8130883 79.08722332 -17 75 C-18.7360804 71.5278392 -18.46411431 67.79671287 -18 64 C-16.3125 60.9375 -16.3125 60.9375 -14 58 C-13.08734858 56.61510454 -12.1920021 55.21868068 -11.3125 53.8125 C-10.89613281 53.15894531 -10.47976563 52.50539062 -10.05078125 51.83203125 C-6.78942383 46.14587278 -7.39210843 39.32207232 -8 33 C-9.88882783 27.2579634 -13.0308158 22.53621051 -17 18 C-18.72732636 14.54534728 -18.35415682 10.78423122 -18 7 C-16.63845797 3.5205037 -15.40926552 2.29233251 -12.375 0.125 C-7.87209142 -1.37596953 -4.52578871 -1.4829834 0 0 Z " fill="#3AB5FB" transform="translate(284,54)"/>
<path d="M0 0 C3.76115969 2.06495042 7.09650288 4.08725592 9 8 C9.71184411 12.59622799 9.57673219 15.95333789 7.3125 20.0625 C6.549375 21.031875 5.78625 22.00125 5 23 C4.08734858 24.38489546 3.1920021 25.78131932 2.3125 27.1875 C1.89613281 27.84105469 1.47976562 28.49460937 1.05078125 29.16796875 C-2.39654995 35.17837147 -1.92047643 43.32809947 -0.28125 49.8671875 C1.68722528 55.0899969 4.22634654 58.92037463 8 63 C9.74580224 66.49160447 9.56983131 70.19045358 9 74 C7.29899975 77.35259386 4.88040809 79.4527193 1.6875 81.4375 C-2.82779162 82.38256104 -6.71855285 82.21544346 -10.7890625 80.046875 C-20.29693049 72.83999789 -25.72637971 60.42963937 -27.4609375 48.94921875 C-29.01100632 34.56802474 -26.28032841 20.70710454 -17.5 9 C-12.492193 2.9906316 -8.16177518 -0.80017404 0 0 Z " fill="#3AB5FB" transform="translate(225,53)"/>
<path d="M0 0 C4.48637327 2.39788916 7.90277493 5.38193734 9.8125 10.15625 C10.595181 16.8090385 10.06922632 20.95217175 6.0625 26.28125 C2.40298859 30.37129217 -1.15321009 31.06069414 -6.44140625 31.375 C-11.74157345 31.17593269 -14.9377555 29.17232662 -18.8125 25.71875 C-21.84290637 21.68489781 -22.19550786 17.2068547 -21.9375 12.28125 C-20.29438032 6.38534996 -17.77674832 3.70905089 -12.9375 0.28125 C-8.59152177 -1.16740941 -4.33374753 -1.60768053 0 0 Z " fill="#2663E6" transform="translate(255.9375,78.71875)"/>
<path d="M0 0 C0.33 0 0.66 0 1 0 C2.76517153 9.53576357 2.76517153 9.53576357 0.125 13.5625 C-0.24882812 14.10132813 -0.62265625 14.64015625 -1.0078125 15.1953125 C-2.83690385 18.52224243 -2.83073234 22.26764809 -3 26 C-3.66 26 -4.32 26 -5 26 C-5 28.31 -5 30.62 -5 33 C-5.66 33 -6.32 33 -7 33 C-6.814375 34.11375 -6.62875 35.2275 -6.4375 36.375 C-6 40 -6 40 -7 42 C-7.66 42 -8.32 42 -9 42 C-9 43.32 -9 44.64 -9 46 C-8.34 46 -7.68 46 -7 46 C-8.49836105 49.11198065 -10.19933758 52.0534615 -12 55 C-13.15970739 51.56880528 -12.8237727 49.34099211 -11.92016602 45.86425781 C-11.52964806 44.33312347 -11.52964806 44.33312347 -11.13124084 42.77105713 C-10.84172043 41.67613953 -10.55220001 40.58122192 -10.25390625 39.453125 C-9.96394272 38.3267865 -9.67397919 37.200448 -9.37522888 36.03997803 C-8.44652071 32.44095503 -7.50468539 28.84551574 -6.5625 25.25 C-5.93077348 22.81142239 -5.29990338 20.37262275 -4.66992188 17.93359375 C-3.12321187 11.95311669 -1.5657087 5.97552952 0 0 Z " fill="#3061D0" transform="translate(188,294)"/>
<path d="M0 0 C0.99 0.33 1.98 0.66 3 1 C2.67 2.65 2.34 4.3 2 6 C2.66 6 3.32 6 4 6 C4.12375 7.299375 4.2475 8.59875 4.375 9.9375 C5.29981543 18.20873657 7.15743744 25.58934363 11 33 C10.505 33.495 10.505 33.495 10 34 C9.92851801 35.35243917 9.91600546 36.70834367 9.9375 38.0625 C9.958125 39.361875 9.97875 40.66125 10 42 C7.87530554 38.32459747 7.0037857 34.40770985 6.0546875 30.3125 C5.87994904 29.57298096 5.70521057 28.83346191 5.525177 28.0715332 C5.15805419 26.51213027 4.793431 24.952137 4.43115234 23.39160156 C3.87656604 21.00673439 3.31190905 18.62441246 2.74609375 16.2421875 C2.39001924 14.72410029 2.03453065 13.20587551 1.6796875 11.6875 C1.51097137 10.97698486 1.34225525 10.26646973 1.16842651 9.53442383 C0.40691923 6.22755736 0 3.41904264 0 0 Z " fill="#3161CE" transform="translate(315,405)"/>
<path d="M0 0 C2 1 2 1 3.0625 3 C4.11256188 6.36019802 4.46591292 9.5146569 4.75390625 13.01171875 C4.89644924 15.0711986 4.89644924 15.0711986 6 17 C6.07092842 19.2072923 6.08415025 21.41667452 6.0625 23.625 C6.05347656 24.81351563 6.04445313 26.00203125 6.03515625 27.2265625 C6.02355469 28.14179687 6.01195312 29.05703125 6 30 C5.34 30 4.68 30 4 30 C4 33.3 4 36.6 4 40 C3.34 40 2.68 40 2 40 C2 41.65 2 43.3 2 45 C1.34 45 0.68 45 0 45 C0.2165625 43.88882813 0.433125 42.77765625 0.65625 41.6328125 C3.04853259 29.01831351 3.37561532 18.69306871 1 6 C0.66289724 4.00063189 0.32853277 2.00079417 0 0 Z " fill="#3264C9" transform="translate(311,71)"/>
<path d="M0 0 C2.37419399 1.62934882 4.3378752 3.01147083 6.1875 5.1875 C5.8575 5.8475 5.5275 6.5075 5.1875 7.1875 C2.8775 5.8675 0.5675 4.5475 -1.8125 3.1875 C-1.8125 2.5275 -1.8125 1.8675 -1.8125 1.1875 C-4.7825 0.5275 -7.7525 -0.1325 -10.8125 -0.8125 C-11.4725 0.5075 -12.1325 1.8275 -12.8125 3.1875 C-13.9675 3.661875 -15.1225 4.13625 -16.3125 4.625 C-19.97504082 5.83126862 -19.97504082 5.83126862 -21.25 8.875 C-21.435625 9.638125 -21.62125 10.40125 -21.8125 11.1875 C-22.4765625 9.4140625 -22.4765625 9.4140625 -22.8125 7.1875 C-20.8161559 3.63010488 -17.90743184 0.8502219 -14.4375 -1.25 C-9.06498281 -2.40125368 -4.83677117 -2.66891601 0 0 Z " fill="#3465CD" transform="translate(257.8125,79.8125)"/>
<path d="M0 0 C1.99562773 3.99125547 3.1199418 7.83322022 4.19921875 12.125 C4.39852493 12.90891113 4.59783112 13.69282227 4.80317688 14.50048828 C5.22160506 16.15399713 5.63750086 17.80814862 6.05102539 19.46289062 C6.68589519 21.99360292 7.33572567 24.52016809 7.98632812 27.046875 C8.39154714 28.65601806 8.79587438 30.26538602 9.19921875 31.875 C9.39496994 32.6292627 9.59072113 33.38352539 9.79240417 34.16064453 C10.69670301 37.84186939 11.10983172 40.38131872 10 44 C8.0412766 39.10319149 6.53047073 34.3950924 5.47265625 29.23046875 C5.01378193 27.06503702 4.45659654 24.94773207 3.875 22.8125 C3.08480841 19.36952237 2.82450386 16.50992289 3 13 C2.34 13 1.68 13 1 13 C0.67 8.71 0.34 4.42 0 0 Z " fill="#3161CC" transform="translate(346,432)"/>
<path d="M0 0 C2.35249001 1.10677229 3.96866157 2.33326077 6 4 C4 5 4 5 2.1953125 4.40625 C0.81947366 3.80399602 -0.55553436 3.19984036 -1.9296875 2.59375 C-4.42652733 1.87767518 -5.60806506 2.01479729 -8 3 C-9.45907607 4.38278504 -9.45907607 4.38278504 -10.625 6.0625 C-11.40875 7.031875 -12.1925 8.00125 -13 9 C-13.66 9 -14.32 9 -15 9 C-15.33 10.98 -15.66 12.96 -16 15 C-16.33 15 -16.66 15 -17 15 C-17.50537432 9.69356959 -16.30655751 7.13319688 -13 3 C-9.46941392 -0.92287342 -4.94538904 -0.81141962 0 0 Z " fill="#3062D2" transform="translate(309,27)"/>
<path d="M0 0 C0.33 0 0.66 0 1 0 C1.33 3.96 1.66 7.92 2 12 C-1.83616676 10.4655333 -4.49393561 9.15341734 -7.8125 6.875 C-8.60269531 6.33617187 -9.39289063 5.79734375 -10.20703125 5.2421875 C-10.79871094 4.83226562 -11.39039063 4.42234375 -12 4 C-8.59473007 3.02189055 -6.45832581 3.18092283 -3 4 C-2.34 4 -1.68 4 -1 4 C-0.67 2.68 -0.34 1.36 0 0 Z " fill="#3362DA" transform="translate(360,488)"/>
<path d="M0 0 C1.27465247 3.82395741 0.53663282 5.73879095 -0.43359375 9.63671875 C-0.59038101 10.27615921 -0.74716827 10.91559967 -0.90870667 11.57441711 C-1.41068273 13.61408532 -1.9239244 15.65072496 -2.4375 17.6875 C-2.78004317 19.07077895 -3.121849 20.45424071 -3.46289062 21.83789062 C-4.30005184 25.22742258 -5.14733845 28.6143298 -6 32 C-6.33 32 -6.66 32 -7 32 C-7 29.03 -7 26.06 -7 23 C-6.34 23 -5.68 23 -5 23 C-5 20.03 -5 17.06 -5 14 C-4.34 14 -3.68 14 -3 14 C-3.66 11.69 -4.32 9.38 -5 7 C-4.01 6.34 -3.02 5.68 -2 5 C-0.79549696 2.44816596 -0.79549696 2.44816596 0 0 Z " fill="#3161CE" transform="translate(192,373)"/>
<path d="M0 0 C0.99 0.66 1.98 1.32 3 2 C1.31029911 5.66398299 -0.87300211 8.90832572 -3.125 12.25 C-3.84945312 13.32765625 -4.57390625 14.4053125 -5.3203125 15.515625 C-5.87460938 16.33546875 -6.42890625 17.1553125 -7 18 C-8.21393603 14.3581919 -7.5159569 13.38860954 -6 10 C-6 9.67 -6 9.34 -6 9 C-6 6 -6 6 -4.125 3.8125 C-2 2 -2 2 0 2 C0 1.34 0 0.68 0 0 Z " fill="#42AEF0" transform="translate(169,24)"/>
<path d="M0 0 C0.33 0 0.66 0 1 0 C1.50537432 5.30643041 0.30655751 7.86680312 -3 12 C-4.98776371 14.20862634 -6.23314288 14.91357424 -9.18359375 15.24609375 C-11.51681699 15.30955742 -13.69003746 15.34337281 -16 15 C-16.66 14.34 -17.32 13.68 -18 13 C-16.73542969 12.92652344 -16.73542969 12.92652344 -15.4453125 12.8515625 C-14.34960938 12.77679688 -13.25390625 12.70203125 -12.125 12.625 C-10.48917969 12.52058594 -10.48917969 12.52058594 -8.8203125 12.4140625 C-5.86953526 12.26746509 -5.86953526 12.26746509 -4 10 C-3.35232207 7.42938689 -3.35232207 7.42938689 -3 5 C-3.99 4.67 -4.98 4.34 -6 4 C-5.38125 3.896875 -4.7625 3.79375 -4.125 3.6875 C-1.63473516 3.12474627 -1.63473516 3.12474627 0 0 Z " fill="#3261CD" transform="translate(207,146)"/>
<path d="M0 0 C1.44815005 3.87852362 0.55078902 6.79684393 -0.43359375 10.734375 C-0.59038101 11.37240051 -0.74716827 12.01042603 -0.90870667 12.66778564 C-1.40959868 14.69746856 -1.92333879 16.72364235 -2.4375 18.75 C-2.78015039 20.1286944 -3.12195699 21.50759881 -3.46289062 22.88671875 C-4.29883006 26.26030094 -5.14631939 29.63085786 -6 33 C-6.33 33 -6.66 33 -7 33 C-7.26333033 28.2600541 -7.02019721 24.63563209 -5.5 20.125 C-3.80524925 15.00096488 -3.69245613 10.35354138 -4 5 C-3.01 5 -2.02 5 -1 5 C-0.67 3.35 -0.34 1.7 0 0 Z " fill="#3360C9" transform="translate(182,414)"/>
<path d="M0 0 C0.66 0 1.32 0 2 0 C2.66 0.99 3.32 1.98 4 3 C4.78375 2.814375 5.5675 2.62875 6.375 2.4375 C9 2 9 2 11 3 C10.67 7.29 10.34 11.58 10 16 C6.51027447 10.76541171 3.21178021 5.40931403 0 0 Z " fill="#44B1EF" transform="translate(267,71)"/>
<path d="M0 0 C0.33 0 0.66 0 1 0 C1.26554688 1.07378906 1.53109375 2.14757812 1.8046875 3.25390625 C2.16139421 4.6901201 2.51816866 6.12631712 2.875 7.5625 C3.04902344 8.26697266 3.22304687 8.97144531 3.40234375 9.69726562 C4.51294815 14.16024998 5.71201216 18.58487052 7 23 C3.20000327 21.73333442 2.04841636 20.41402726 0 17 C0.75 13.6875 0.75 13.6875 2 11 C1.34 11 0.68 11 0 11 C0 7.37 0 3.74 0 0 Z " fill="#3263CE" transform="translate(185,101)"/>
<path d="M0 0 C5.3537465 1.55652055 10.00150947 3.9817509 14.875 6.625 C15.65875 7.04523438 16.4425 7.46546875 17.25 7.8984375 C19.16892057 8.9281022 21.08477603 9.96347567 23 11 C19.28125 12.1171875 19.28125 12.1171875 16.75 11.0625 C16.1725 10.711875 15.595 10.36125 15 10 C15 9.34 15 8.68 15 8 C14.236875 7.855625 13.47375 7.71125 12.6875 7.5625 C10 7 10 7 7 6 C7 5.34 7 4.68 7 4 C6.1028125 3.7834375 6.1028125 3.7834375 5.1875 3.5625 C3.43849596 3.1127561 1.71322977 2.57107659 0 2 C0 1.34 0 0.68 0 0 Z " fill="#2F5DC7" transform="translate(296,437)"/>
<path d="M0 0 C0.66 0 1.32 0 2 0 C2 0.99 2 1.98 2 3 C2.66 3 3.32 3 4 3 C4 4.65 4 6.3 4 8 C3.34 8 2.68 8 2 8 C2 7.34 2 6.68 2 6 C1.01 6 0.02 6 -1 6 C-1.12117187 6.71027344 -1.24234375 7.42054687 -1.3671875 8.15234375 C-1.53476563 9.07144531 -1.70234375 9.99054687 -1.875 10.9375 C-2.03742188 11.85402344 -2.19984375 12.77054688 -2.3671875 13.71484375 C-2.57601562 14.46894531 -2.78484375 15.22304688 -3 16 C-3.66 16.33 -4.32 16.66 -5 17 C-4.46246904 10.81839396 -2.45417612 5.673142 0 0 Z " fill="#49B2ED" transform="translate(132,43)"/>
<path d="M0 0 C1.8871875 0.0309375 1.8871875 0.0309375 3.8125 0.0625 C1.37376499 2.50123501 -1.0905356 3.61001862 -4.1875 5.125 C-5.26 5.65222656 -6.3325 6.17945313 -7.4375 6.72265625 C-8.345 7.16480469 -9.2525 7.60695313 -10.1875 8.0625 C-11.1775 8.5575 -11.1775 8.5575 -12.1875 9.0625 C-12.1875 7.7425 -12.1875 6.4225 -12.1875 5.0625 C-11.548125 4.959375 -10.90875 4.85625 -10.25 4.75 C-9.569375 4.523125 -8.88875 4.29625 -8.1875 4.0625 C-7.8575 3.0725 -7.5275 2.0825 -7.1875 1.0625 C-4.43671116 0.14557039 -2.82801087 -0.04636083 0 0 Z " fill="#2B62D1" transform="translate(221.1875,321.9375)"/>
<path d="M0 0 C0 0.99 0 1.98 0 3 C-4.20988267 6.77809983 -7.52340493 7.44296476 -12.94921875 7.43359375 C-15 7 -15 7 -18 4 C-14.04 4 -10.08 4 -6 4 C-5.67 3.01 -5.34 2.02 -5 1 C-3.35 0.67 -1.7 0.34 0 0 Z " fill="#3462C0" transform="translate(315,154)"/>
<path d="M0 0 C0.33 0 0.66 0 1 0 C0.65954675 8.49430869 -1.25658428 15.973914 -4 24 C-5.125 20.25 -5.125 20.25 -4 18 C-3.93049459 16.45976004 -3.91547643 14.91665012 -3.9375 13.375 C-3.94652344 12.55773437 -3.95554687 11.74046875 -3.96484375 10.8984375 C-3.97644531 10.27195312 -3.98804688 9.64546875 -4 9 C-3.01 9 -2.02 9 -1 9 C-0.67 6.03 -0.34 3.06 0 0 Z " fill="#3165CE" transform="translate(338,103)"/>
<path d="M0 0 C1.48663983 2.75545698 2.4150229 5.27010688 3.0703125 8.328125 C3.33134766 9.52695312 3.33134766 9.52695312 3.59765625 10.75 C3.77167969 11.575 3.94570313 12.4 4.125 13.25 C4.30675781 14.09046875 4.48851562 14.9309375 4.67578125 15.796875 C5.12199541 17.86355111 5.56164445 19.93164277 6 22 C5.34 22 4.68 22 4 22 C1.39161312 14.46595398 -0.54249536 8.00180661 0 0 Z " fill="#2F61CE" transform="translate(307,278)"/>
<path d="M0 0 C1.98 0 3.96 0 6 0 C2.64309635 2.23793576 -0.8339284 3.65050338 -4.5625 5.125 C-5.24763672 5.40214844 -5.93277344 5.67929687 -6.63867188 5.96484375 C-11.7466133 8 -11.7466133 8 -14 8 C-14 7.34 -14 6.68 -14 6 C-13.21625 5.71125 -12.4325 5.4225 -11.625 5.125 C-8.90328368 4.15087746 -8.90328368 4.15087746 -7 2 C-3.375 1.875 -3.375 1.875 0 2 C0 1.34 0 0.68 0 0 Z " fill="#2F62CF" transform="translate(186,473)"/>
<path d="M0 0 C1.4783226 2.95664519 1.06032783 5.74229737 1 9 C-1 10 -1 10 -4 11 C-4.33 13.31 -4.66 15.62 -5 18 C-6.66201898 13.94507418 -5.20927166 11.22066185 -3.625 7.3125 C-3.16351563 6.15363281 -2.70203125 4.99476563 -2.2265625 3.80078125 C-1 1 -1 1 0 0 Z " fill="#3163D1" transform="translate(227,149)"/>
<path d="M0 0 C0.99 0.33 1.98 0.66 3 1 C-0.875 6.875 -0.875 6.875 -2 8 C-2.04092937 10.33297433 -2.04241723 12.66705225 -2 15 C-4 13 -4 13 -4.375 9.75 C-3.94338741 5.43387409 -2.63736131 3.37911918 0 0 Z " fill="#49AFEB" transform="translate(323,166)"/>
<path d="M0 0 C2.31 0.66 4.62 1.32 7 2 C7.33 1.34 7.66 0.68 8 0 C8 0.99 8 1.98 8 3 C6.02 3.99 6.02 3.99 4 5 C4.33 7.64 4.66 10.28 5 13 C3.09610151 10.14415227 2.30537823 8.0688238 1.375 4.8125 C0.98441406 3.46091797 0.98441406 3.46091797 0.5859375 2.08203125 C0.39257812 1.39496094 0.19921875 0.70789062 0 0 Z " fill="#46B2F2" transform="translate(343,49)"/>
<path d="M0 0 C0.7724923 2.27233126 1.13802176 3.56711357 0.3984375 5.88671875 C-2.38926257 10.79179406 -2.38926257 10.79179406 -5.75 11.9375 C-6.4925 11.958125 -7.235 11.97875 -8 12 C-6.59023295 8.96147295 -4.91129772 6.4060405 -2.875 3.75 C-2.06675781 2.69039062 -2.06675781 2.69039062 -1.2421875 1.609375 C-0.83226562 1.07828125 -0.42234375 0.5471875 0 0 Z " fill="#2D64D6" transform="translate(183,33)"/>
<path d="M0 0 C2.4375 1.4375 2.4375 1.4375 5 4 C5.73151889 6.99304558 5.92773687 9.92553213 6 13 C5.67 13 5.34 13 5 13 C4.34 11.02 3.68 9.04 3 7 C1.35 6.67 -0.3 6.34 -2 6 C-2 5.01 -2 4.02 -2 3 C-1.34 3 -0.68 3 0 3 C0 2.01 0 1.02 0 0 Z " fill="#2F63D3" transform="translate(202,29)"/>
<path d="M0 0 C1.32 0.66 2.64 1.32 4 2 C3.67 2.33 3.34 2.66 3 3 C4.98 3 6.96 3 9 3 C5.99559979 5.00293347 4.29006055 5.49271626 0.8125 6.125 C-0.08855469 6.29257812 -0.98960937 6.46015625 -1.91796875 6.6328125 C-2.60503906 6.75398438 -3.29210937 6.87515625 -4 7 C-4 6.01 -4 5.02 -4 4 C-2.68 3.67 -1.36 3.34 0 3 C0 2.01 0 1.02 0 0 Z " fill="#2B61D9" transform="translate(196,466)"/>
<path d="M0 0 C0.33 0 0.66 0 1 0 C1.17073174 5.03658636 1.06518283 8.35333863 -1 13 C-1 14.32 -1 15.64 -1 17 C-2.5 18.75 -2.5 18.75 -4 20 C-3.34034961 13.13963599 -1.7637236 6.65556077 0 0 Z " fill="#3361C6" transform="translate(173,353)"/>
<path d="M0 0 C0.598125 0.20625 1.19625 0.4125 1.8125 0.625 C2.1425 0.295 2.4725 -0.035 2.8125 -0.375 C4.66537502 -0.44726502 6.52083878 -0.4588122 8.375 -0.4375 C9.38691406 -0.42847656 10.39882812 -0.41945313 11.44140625 -0.41015625 C12.61509766 -0.39275391 12.61509766 -0.39275391 13.8125 -0.375 C13.8125 -0.045 13.8125 0.285 13.8125 0.625 C11.23092632 1.15632389 8.64788244 1.67534379 6.0625 2.1875 C4.96808594 2.41469727 4.96808594 2.41469727 3.8515625 2.64648438 C0.14692927 3.37057178 -2.58072322 3.72317231 -6.1875 2.625 C-2.72441275 -0.46704219 -2.72441275 -0.46704219 0 0 Z " fill="#3061D1" transform="translate(211.1875,465.375)"/>
<path d="M0 0 C2.71653543 5.07086614 2.71653543 5.07086614 3 8 C2.02246356 9.02196992 1.0194119 10.01979625 0 11 C-0.72197162 13.60611077 -0.72197162 13.60611077 -1 16 C-1.66 16 -2.32 16 -3 16 C-2.40984815 10.49191603 -1.43336231 5.35121931 0 0 Z " fill="#2E60CF" transform="translate(162,397)"/>
<path d="M0 0 C3.50755794 3.50755794 4.125 7.5605227 4.125 12.375 C4.08375 13.57125 4.0425 14.7675 4 16 C3.67 15.01 3.34 14.02 3 13 C0.99983534 11.79117904 0.99983534 11.79117904 -1 11 C-0.34 11 0.32 11 1 11 C0.67 7.37 0.34 3.74 0 0 Z " fill="#46B2EA" transform="translate(298,74)"/>
<path d="M0 0 C0.33 0 0.66 0 1 0 C1.22151549 1.79008467 1.42682213 3.58218162 1.625 5.375 C1.74101562 6.37273437 1.85703125 7.37046875 1.9765625 8.3984375 C1.98429688 9.25695312 1.99203125 10.11546875 2 11 C1.34 11.66 0.68 12.32 0 13 C-0.66 12.67 -1.32 12.34 -2 12 C-2.33 12.99 -2.66 13.98 -3 15 C-2.35812082 9.86496656 -1.31727753 5.0056546 0 0 Z " fill="#2F62D4" transform="translate(204,231)"/>
<path d="M0 0 C2.62277342 5.24554685 4.35861008 10.08293364 4 16 C3.34 16.33 2.68 16.66 2 17 C1.67 14.69 1.34 12.38 1 10 C0.34 10 -0.32 10 -1 10 C-0.67 6.7 -0.34 3.4 0 0 Z " fill="#2F5FD6" transform="translate(315,310)"/>
<path d="M0 0 C1.9375 0.30078125 1.9375 0.30078125 4.9375 2.30078125 C4.195 2.25953125 3.4525 2.21828125 2.6875 2.17578125 C-0.03438285 2.10266894 -0.03438285 2.10266894 -2.0625 3.36328125 C-4.71834118 4.6082068 -6.29817345 4.06864974 -9.0625 3.30078125 C-6.65986042 -0.30317812 -3.96639261 -0.02253632 0 0 Z " fill="#43B9F5" transform="translate(170.0625,-0.30078125)"/>
<path d="M0 0 C3.3 0.33 6.6 0.66 10 1 C10.33 2.98 10.66 4.96 11 7 C6.89188572 5.55007731 3.53144334 3.54592427 0 1 C0 0.67 0 0.34 0 0 Z " fill="#2E60CF" transform="translate(348,491)"/>
<path d="M0 0 C0.33 0 0.66 0 1 0 C2.61050328 9.01531729 2.61050328 9.01531729 0.0625 13.125 C-0.618125 13.74375 -1.29875 14.3625 -2 15 C-2.22577402 9.5814234 -1.46670113 5.22512279 0 0 Z " fill="#2C63D5" transform="translate(188,294)"/>
<path d="M0 0 C0.33 0 0.66 0 1 0 C1.33 3.3 1.66 6.6 2 10 C1.01 10.495 1.01 10.495 0 11 C-0.72159424 12.64363134 -1.39351421 14.31050386 -2 16 C-3.3805087 12.23331402 -2.59568159 9.55210827 -1.5625 5.75 C-1.27503906 4.67234375 -0.98757812 3.5946875 -0.69140625 2.484375 C-0.46324219 1.66453125 -0.23507813 0.8446875 0 0 Z " fill="#3160CC" transform="translate(196,262)"/>
<path d="M0 0 C1.66645757 3.08549348 2.73761596 6.12675325 3.6875 9.5 C3.95949219 10.4384375 4.23148437 11.376875 4.51171875 12.34375 C5.00140894 15.00766466 4.88693174 16.47611372 4 19 C0.33458746 13.5018812 -0.34357529 6.52793043 0 0 Z " fill="#3063CC" transform="translate(293,223)"/>
<path d="M0 0 C0 0.66 0 1.32 0 2 C1.65 2 3.3 2 5 2 C2.37801226 4.15377564 0.35595828 5.40072174 -3 6 C-3 5.34 -3 4.68 -3 4 C-3.99 3.34 -4.98 2.68 -6 2 C-2.25 0 -2.25 0 0 0 Z " fill="#2D61D8" transform="translate(163,481)"/>
<path d="M0 0 C1.39073768 2.62890497 2.43969204 5.12122047 3.1875 8 C3.36667969 8.66 3.54585938 9.32 3.73046875 10 C4.03576811 12.26540976 3.68136613 13.835092 3 16 C2.67 15.01 2.34 14.02 2 13 C1.34 12.34 0.68 11.68 0 11 C-0.1953125 8.3984375 -0.1953125 8.3984375 -0.125 5.375 C-0.10695313 4.37210938 -0.08890625 3.36921875 -0.0703125 2.3359375 C-0.04710937 1.56507813 -0.02390625 0.79421875 0 0 Z " fill="#2E62D1" transform="translate(281,175)"/>
<path d="M0 0 C0.66 0 1.32 0 2 0 C2.33 1.32 2.66 2.64 3 4 C4.65 3.34 6.3 2.68 8 2 C7.67 3.32 7.34 4.64 7 6 C5.02 6.33 3.04 6.66 1 7 C0.67 4.69 0.34 2.38 0 0 Z " fill="#335ECF" transform="translate(173,447)"/>
<path d="M0 0 C0.33 0 0.66 0 1 0 C1 1.98 1 3.96 1 6 C2.32 5.67 3.64 5.34 5 5 C5.33 5.99 5.66 6.98 6 8 C5.01 8.495 5.01 8.495 4 9 C3.01 10.485 3.01 10.485 2 12 C-0.13586678 8.79619983 -0.23132175 7.98060033 -0.125 4.3125 C-0.10695313 3.50425781 -0.08890625 2.69601563 -0.0703125 1.86328125 C-0.04710937 1.24839844 -0.02390625 0.63351563 0 0 Z " fill="#48B1F1" transform="translate(266,118)"/>
<path d="M0 0 C0.66 0 1.32 0 2 0 C2.67408308 1.26691507 3.33900497 2.53870749 4 3.8125 C4.556875 4.87404297 4.556875 4.87404297 5.125 5.95703125 C6 8 6 8 6 11 C4.80040625 9.74057614 3.61560557 8.46704714 2.4375 7.1875 C1.44556641 6.12595703 1.44556641 6.12595703 0.43359375 5.04296875 C-0.03949219 4.36878906 -0.51257813 3.69460937 -1 3 C-0.67 2.01 -0.34 1.02 0 0 Z " fill="#4AAEEA" transform="translate(207,121)"/>
<path d="M0 0 C0.97591583 3.38317487 0.85856655 5.5657338 0 9 C-0.66 9 -1.32 9 -2 9 C-2 10.65 -2 12.3 -2 14 C-3.1171875 12.328125 -3.1171875 12.328125 -4 10 C-3.3203125 7.421875 -3.3203125 7.421875 -2.125 4.75 C-1.73570312 3.85796875 -1.34640625 2.9659375 -0.9453125 2.046875 C-0.63335937 1.37140625 -0.32140625 0.6959375 0 0 Z " fill="#4AB1EB" transform="translate(203,69)"/>
<path d="M0 0 C0.99 0.495 0.99 0.495 2 1 C2 1.66 2 2.32 2 3 C2.66 3.33 3.32 3.66 4 4 C4 6.66666667 4 9.33333333 4 12 C1.95780294 10.30820672 1.08206694 9.36272334 0.48828125 6.73828125 C0.43027344 5.93777344 0.37226563 5.13726562 0.3125 4.3125 C0.24675781 3.50425781 0.18101562 2.69601563 0.11328125 1.86328125 C0.07589844 1.24839844 0.03851563 0.63351563 0 0 Z " fill="#2E63CD" transform="translate(292,146)"/>
<path d="M0 0 C4.875 3.75 4.875 3.75 6 6 C6.06950541 7.54023996 6.08452357 9.08334988 6.0625 10.625 C6.05347656 11.44226563 6.04445312 12.25953125 6.03515625 13.1015625 C6.02355469 13.72804688 6.01195312 14.35453125 6 15 C5.67 15 5.34 15 5 15 C4.34 11.7 3.68 8.4 3 5 C1.68 4.67 0.36 4.34 -1 4 C-0.67 2.68 -0.34 1.36 0 0 Z " fill="#49AFEC" transform="translate(228,55)"/>
<path d="M0 0 C2 0 2 0 3.9375 1.875 C4.618125 2.57625 5.29875 3.2775 6 4 C6.99 4.66 7.98 5.32 9 6 C8.34 7.32 7.68 8.64 7 10 C5.83043409 8.52312468 4.66441854 7.04343707 3.5 5.5625 C2.8503125 4.73878906 2.200625 3.91507813 1.53125 3.06640625 C0 1 0 1 0 0 Z " fill="#2D61CE" transform="translate(175,143)"/>
<path d="M0 0 C1.7074998 1.28062485 3.37373596 2.61767557 5 4 C5 4.66 5 5.32 5 6 C1.25 7.125 1.25 7.125 -1 6 C-0.67 4.02 -0.34 2.04 0 0 Z " fill="#40AFF0" transform="translate(227,110)"/>
<path d="M0 0 C0.33 0.99 0.66 1.98 1 3 C-1.3125 6.1875 -1.3125 6.1875 -4 9 C-4.66 9 -5.32 9 -6 9 C-5.67 7.68 -5.34 6.36 -5 5 C-4.34 5 -3.68 5 -3 5 C-3 4.01 -3 3.02 -3 2 C-2.01 1.34 -1.02 0.68 0 0 Z " fill="#3462CC" transform="translate(264,98)"/>
<path d="M0 0 C2.60018816 3.90028225 2.15085514 7.47434569 2 12 C0.62437146 10.71034824 -0.70766393 9.37310707 -2 8 C-2 7.34 -2 6.68 -2 6 C-1.34 6 -0.68 6 0 6 C0 4.02 0 2.04 0 0 Z " fill="#2A62DA" transform="translate(291,215)"/>
<path d="M0 0 C0.33 0 0.66 0 1 0 C1.3125 2.75 1.3125 2.75 1 6 C-1.5 8.375 -1.5 8.375 -4 10 C-4 5.75354935 -2.18249194 3.61475228 0 0 Z " fill="#4DAFEA" transform="translate(339,144)"/>
<path d="M0 0 C0.33 0 0.66 0 1 0 C1.1875 3.375 1.1875 3.375 1 7 C0.01 7.66 -0.98 8.32 -2 9 C-2.33 9.99 -2.66 10.98 -3 12 C-3.66 12 -4.32 12 -5 12 C-3.41037341 7.96479403 -1.71767682 3.98188718 0 0 Z " fill="#3466CE" transform="translate(310,117)"/>
<path d="M0 0 C1.42944945 2.35438733 2.08661261 3.48032433 1.625 6.25 C1.41875 6.8275 1.2125 7.405 1 8 C-0.32 8 -1.64 8 -3 8 C-3 7.01 -3 6.02 -3 5 C-2.34 5 -1.68 5 -1 5 C-0.67 3.35 -0.34 1.7 0 0 Z " fill="#2D61D7" transform="translate(301,254)"/>
<path d="M0 0 C2.50298434 2.93828597 3.46930939 5.17902761 4 9 C3.34 9 2.68 9 2 9 C2 8.34 2 7.68 2 7 C1.01 7 0.02 7 -1 7 C-0.67 4.69 -0.34 2.38 0 0 Z " fill="#4BAFE9" transform="translate(365,39)"/>
<path d="M0 0 C1.37562854 1.28965176 2.70766393 2.62689293 4 4 C4 4.66 4 5.32 4 6 C2.35 6.33 0.7 6.66 -1 7 C-1 3 -1 3 0 0 Z " fill="#2B63D6" transform="translate(320,38)"/>
<path d="M0 0 C0.66 0.66 1.32 1.32 2 2 C1.625 4.125 1.625 4.125 1 6 C1.99 6 2.98 6 4 6 C4 6.66 4 7.32 4 8 C0.34683329 6.75023244 -0.78065836 6.32901247 -3 3 C-2.34 3 -1.68 3 -1 3 C-0.67 2.01 -0.34 1.02 0 0 Z " fill="#49B0EC" transform="translate(324,179)"/>
<path d="M0 0 C0 3 0 3 -1 6 C-0.34 6.33 0.32 6.66 1 7 C-1.31 7.33 -3.62 7.66 -6 8 C-4.02 5.36 -2.04 2.72 0 0 Z " fill="#3163DA" transform="translate(302,132)"/>
<path d="M0 0 C0.99928333 2.698065 1.03624754 3.88010429 0.1875 6.6875 C-1 9 -1 9 -3 10 C-3.33 8.35 -3.66 6.7 -4 5 C-3.01 5 -2.02 5 -1 5 C-0.67 3.35 -0.34 1.7 0 0 Z " fill="#2D61D3" transform="translate(182,414)"/>
<path d="M0 0 C1.98 0.495 1.98 0.495 4 1 C2.63016497 4.16115776 2.0109362 4.9927092 -1 7 C-0.67 4.69 -0.34 2.38 0 0 Z " fill="#2E62D6" transform="translate(317,147)"/>
<path d="M0 0 C2.15377564 2.62198774 3.40072174 4.64404172 4 8 C2.35 7.67 0.7 7.34 -1 7 C-0.67 4.69 -0.34 2.38 0 0 Z " fill="#42B2F4" transform="translate(155,135)"/>
<path d="M0 0 C0.66 0.33 1.32 0.66 2 1 C0.35 4.63 -1.3 8.26 -3 12 C-4.12668965 8.61993106 -3.89636912 8.0359269 -2.625 4.875 C-2.34914062 4.17117187 -2.07328125 3.46734375 -1.7890625 2.7421875 C-1 1 -1 1 0 0 Z " fill="#4CABE5" transform="translate(158,44)"/>
<path d="M0 0 C0 0.99 0 1.98 0 3 C-0.66 3.66 -1.32 4.32 -2 5 C-4.125 4.625 -4.125 4.625 -6 4 C-5.67 3.01 -5.34 2.02 -5 1 C-3.35 0.67 -1.7 0.34 0 0 Z " fill="#3261D0" transform="translate(315,154)"/>
<path d="M0 0 C0.99 0.33 1.98 0.66 3 1 C4.25 3.9375 4.25 3.9375 5 7 C4.67 7.66 4.34 8.32 4 9 C0 2.25 0 2.25 0 0 Z " fill="#50B1E8" transform="translate(137,153)"/>
<path d="M0 0 C2.625 -0.1875 2.625 -0.1875 5 0 C5.33 0.66 5.66 1.32 6 2 C5.34 2 4.68 2 4 2 C3.67 2.66 3.34 3.32 3 4 C1.35 3.67 -0.3 3.34 -2 3 C-1.34 2.01 -0.68 1.02 0 0 Z " fill="#2B61DE" transform="translate(259,138)"/>
<path d="M0 0 C0.33 0.66 0.66 1.32 1 2 C-0.98 4.97 -0.98 4.97 -3 8 C-3.66 7.01 -4.32 6.02 -5 5 C-4.34 5 -3.68 5 -3 5 C-3 3.68 -3 2.36 -3 1 C-2.01 0.67 -1.02 0.34 0 0 Z " fill="#2E63CB" transform="translate(206,42)"/>
<path d="M0 0 C2.88437779 1.29299694 4.87219421 2.65941363 7 5 C6.34 5.66 5.68 6.32 5 7 C0 1.125 0 1.125 0 0 Z " fill="#31CBF7" transform="translate(154,178)"/>
<path d="M0 0 C0.33 0 0.66 0 1 0 C1.33 3.3 1.66 6.6 2 10 C1.01 10 0.02 10 -1 10 C-0.67 6.7 -0.34 3.4 0 0 Z " fill="#3365CD" transform="translate(162,73)"/>
<path d="M0 0 C0 0.66 0 1.32 0 2 C-0.99 2 -1.98 2 -3 2 C-3.66 3.32 -4.32 4.64 -5 6 C-5.33 5.34 -5.66 4.68 -6 4 C-6.66 3.67 -7.32 3.34 -8 3 C-2.25 0 -2.25 0 0 0 Z " fill="#2D60D4" transform="translate(196,441)"/>
<path d="M0 0 C0.66 0.33 1.32 0.66 2 1 C0.69593116 3.01920337 -0.63823419 5.01924973 -2 7 C-2.33 7 -2.66 7 -3 7 C-3.1875 4.625 -3.1875 4.625 -3 2 C-2.01 1.34 -1.02 0.68 0 0 Z " fill="#3465CC" transform="translate(325,140)"/>
<path d="M0 0 C1.00000429 4.00001715 0.80688405 6.05523353 0 10 C-0.99 10 -1.98 10 -3 10 C-2.01 6.7 -1.02 3.4 0 0 Z " fill="#50AEE2" transform="translate(347,126)"/>
<path d="M0 0 C0.99 0 1.98 0 3 0 C1.95125002 2.62187494 1.35068687 3.79371361 -1.125 5.25 C-1.74375 5.4975 -2.3625 5.745 -3 6 C-3 5.01 -3 4.02 -3 3 C-2.01 3 -1.02 3 0 3 C0 2.01 0 1.02 0 0 Z " fill="#49ACEA" transform="translate(230,127)"/>
<path d="" fill="#FFFFFF" transform="translate(0,0)"/>
<path d="" fill="#FFFFFF" transform="translate(0,0)"/>
<path d="" fill="#FFFFFF" transform="translate(0,0)"/>
<path d="" fill="#FFFFFF" transform="translate(0,0)"/>
<path d="" fill="#FFFFFF" transform="translate(0,0)"/>
<path d="" fill="#FFFFFF" transform="translate(0,0)"/>
<path d="" fill="#FFFFFF" transform="translate(0,0)"/>
<path d="" fill="#FFFFFF" transform="translate(0,0)"/>
<path d="" fill="#FFFFFF" transform="translate(0,0)"/>
<path d="" fill="#FFFFFF" transform="translate(0,0)"/>
<path d="" fill="#FFFFFF" transform="translate(0,0)"/>
<path d="" fill="#FFFFFF" transform="translate(0,0)"/>
<path d="" fill="#FFFFFF" transform="translate(0,0)"/>
<path d="" fill="#FFFFFF" transform="translate(0,0)"/>
<path d="" fill="#FFFFFF" transform="translate(0,0)"/>
<path d="" fill="#FFFFFF" transform="translate(0,0)"/>
<path d="" fill="#FFFFFF" transform="translate(0,0)"/>
<path d="" fill="#FFFFFF" transform="translate(0,0)"/>
<path d="" fill="#FFFFFF" transform="translate(0,0)"/>
<path d="" fill="#FFFFFF" transform="translate(0,0)"/>
<path d="" fill="#FFFFFF" transform="translate(0,0)"/>
<path d="" fill="#FFFFFF" transform="translate(0,0)"/>
<path d="" fill="#FFFFFF" transform="translate(0,0)"/>
<path d="" fill="#FFFFFF" transform="translate(0,0)"/>
<path d="" fill="#FFFFFF" transform="translate(0,0)"/>
<path d="" fill="#FFFFFF" transform="translate(0,0)"/>
<path d="" fill="#FFFFFF" transform="translate(0,0)"/>
<path d="" fill="#FFFFFF" transform="translate(0,0)"/>
<path d="" fill="#FFFFFF" transform="translate(0,0)"/>
<path d="" fill="#FFFFFF" transform="translate(0,0)"/>
<path d="" fill="#FFFFFF" transform="translate(0,0)"/>
<path d="" fill="#FFFFFF" transform="translate(0,0)"/>
<path d="" fill="#FFFFFF" transform="translate(0,0)"/>
<path d="" fill="#FFFFFF" transform="translate(0,0)"/>
<path d="" fill="#FFFFFF" transform="translate(0,0)"/>
<path d="" fill="#FFFFFF" transform="translate(0,0)"/>
<path d="" fill="#FFFFFF" transform="translate(0,0)"/>
<path d="" fill="#FFFFFF" transform="translate(0,0)"/>
<path d="" fill="#FFFFFF" transform="translate(0,0)"/>
<path d="" fill="#FFFFFF" transform="translate(0,0)"/>
<path d="" fill="#FFFFFF" transform="translate(0,0)"/>
<path d="" fill="#FFFFFF" transform="translate(0,0)"/>
<path d="" fill="#FFFFFF" transform="translate(0,0)"/>
<path d="" fill="#FFFFFF" transform="translate(0,0)"/>
<path d="" fill="#FFFFFF" transform="translate(0,0)"/>
<path d="" fill="#FFFFFF" transform="translate(0,0)"/>
<path d="" fill="#FFFFFF" transform="translate(0,0)"/>
<path d="" fill="#FFFFFF" transform="translate(0,0)"/>
<path d="" fill="#FFFFFF" transform="translate(0,0)"/>
<path d="" fill="#FFFFFF" transform="translate(0,0)"/>
<path d="" fill="#FFFFFF" transform="translate(0,0)"/>
<path d="" fill="#FFFFFF" transform="translate(0,0)"/>
<path d="" fill="#FFFFFF" transform="translate(0,0)"/>
</svg>
